<?xml version="1.0" standalone="no"?>
<!DOCTYPE svg PUBLIC "-//W3C//DTD SVG 20010904//EN"
 "http://www.w3.org/TR/2001/REC-SVG-20010904/DTD/svg10.dtd">
<svg version="1.0" xmlns="http://www.w3.org/2000/svg"
 width="1024.000000pt" height="1024.000000pt" viewBox="0 0 1024.000000 1024.000000"
 preserveAspectRatio="xMidYMid meet">
<metadata>
Created by potrace 1.14, written by Peter Selinger 2001-2017
</metadata>
<g transform="translate(0.000000,1024.000000) scale(0.100000,-0.100000)"
fill="#000000" stroke="none">
<path d="M3395 7773 c-137 -22 -165 -31 -270 -82 -38 -19 -73 -34 -77 -33 -5
1 -8 -2 -8 -7 0 -5 -13 -14 -30 -21 -16 -7 -30 -16 -30 -21 0 -5 -5 -9 -10 -9
-6 0 -23 -11 -37 -24 -15 -14 -31 -22 -36 -19 -6 3 -7 1 -3 -5 4 -7 3 -12 -2
-12 -12 0 -172 -157 -172 -170 0 -5 -4 -10 -8 -10 -5 0 -17 -16 -28 -35 -10
-19 -22 -35 -26 -35 -5 0 -8 -5 -8 -11 0 -6 -9 -24 -21 -40 -11 -16 -18 -29
-15 -29 3 0 -2 -9 -12 -20 -9 -12 -17 -24 -17 -28 -1 -4 -8 -21 -18 -38 -9
-17 -13 -34 -10 -38 4 -3 1 -6 -4 -6 -6 0 -14 -18 -18 -40 -4 -22 -10 -40 -15
-40 -5 0 -7 -11 -5 -25 1 -14 -2 -25 -6 -25 -5 0 -9 -13 -9 -29 0 -17 -4 -32
-9 -35 -5 -3 -8 -28 -7 -56 2 -28 -1 -53 -6 -56 -11 -7 -10 -251 0 -258 5 -3
8 -28 7 -56 -1 -27 2 -50 7 -50 4 0 8 -11 8 -24 0 -14 4 -27 10 -31 5 -3 7
-12 3 -20 -3 -9 0 -21 5 -28 6 -7 14 -32 18 -55 4 -23 10 -42 14 -42 5 0 11
-13 15 -30 4 -16 11 -30 16 -30 5 0 9 -9 9 -19 0 -11 7 -26 15 -34 8 -8 11
-17 8 -21 -4 -3 -1 -6 5 -6 7 0 12 -7 12 -15 0 -8 4 -15 9 -15 5 0 13 -10 17
-22 4 -13 10 -25 13 -28 4 -3 23 -29 44 -57 44 -63 51 -71 121 -145 30 -32 59
-58 65 -58 6 0 11 -7 11 -15 0 -8 7 -15 15 -15 7 0 19 -8 24 -17 6 -10 11 -14
11 -9 0 5 9 -1 20 -14 11 -13 20 -19 20 -14 0 5 6 0 14 -11 8 -11 54 -40 103
-65 48 -25 90 -48 91 -52 2 -5 8 -8 14 -8 6 0 41 -14 77 -31 155 -73 196 -93
201 -98 9 -10 44 -31 63 -37 9 -4 17 -10 17 -15 0 -5 7 -9 15 -9 8 0 15 -7 15
-15 0 -8 5 -15 11 -15 14 0 129 -120 129 -136 0 -6 6 -14 13 -17 14 -5 67 -98
67 -117 0 -6 9 -30 20 -52 11 -23 20 -51 20 -63 0 -11 5 -26 12 -33 7 -7 9
-12 5 -12 -3 0 -2 -11 3 -25 7 -20 6 -25 -5 -25 -8 0 -15 -5 -15 -11 0 -5 -5
-7 -11 -3 -6 3 -33 8 -60 10 -27 1 -54 6 -61 10 -15 10 -50 9 -113 -1 -50 -8
-83 -12 -141 -18 -17 -2 -35 -6 -40 -9 -9 -5 -61 -21 -79 -23 -5 -1 -23 -7
-40 -14 -16 -7 -38 -14 -49 -17 -10 -2 -37 -12 -60 -22 -22 -11 -49 -22 -58
-25 -10 -4 -42 -21 -70 -40 -29 -18 -61 -36 -70 -40 -10 -3 -18 -11 -18 -17 0
-6 -4 -9 -9 -5 -5 3 -16 -2 -24 -10 -9 -8 -20 -15 -26 -15 -5 0 -14 -6 -18
-13 -4 -7 -19 -20 -33 -29 -39 -25 -123 -109 -151 -150 -14 -21 -28 -35 -31
-32 -4 3 -9 -4 -13 -15 -3 -12 -12 -27 -18 -33 -21 -22 -77 -114 -77 -126 0
-7 -5 -12 -12 -12 -6 0 -9 -3 -5 -6 3 -3 -6 -27 -20 -52 -13 -26 -26 -56 -29
-66 -2 -11 -9 -23 -15 -26 -6 -4 -10 -10 -10 -14 0 -6 -6 -29 -18 -61 -4 -11
-7 -35 -6 -52 0 -18 -2 -33 -6 -33 -3 0 -9 -19 -13 -42 -3 -24 -8 -55 -11 -71
-2 -15 -7 -32 -10 -38 -10 -15 -7 -340 3 -353 5 -6 8 -26 7 -43 0 -18 3 -33 7
-33 4 0 8 -11 8 -23 0 -13 3 -27 7 -31 4 -4 8 -13 8 -19 0 -23 29 -107 37
-107 4 0 8 -6 8 -12 0 -21 42 -99 94 -177 49 -73 206 -241 225 -241 5 0 21
-10 33 -23 29 -29 189 -117 212 -117 9 0 16 -5 16 -12 0 -6 2 -9 5 -6 3 2 35
-3 73 -12 50 -12 104 -16 212 -14 157 3 197 7 212 22 6 6 17 8 24 5 8 -3 14 0
14 6 0 6 8 11 18 11 9 0 26 7 36 15 10 8 23 12 27 9 5 -3 9 0 9 5 0 6 7 11 15
11 8 0 15 5 15 11 0 5 4 8 10 4 5 -3 18 3 30 15 11 11 25 21 31 23 11 2 141
127 167 160 6 9 12 21 12 27 0 5 4 10 8 10 5 0 19 20 31 45 12 24 26 47 32 50
5 4 7 10 4 15 -3 5 -1 11 5 15 5 3 10 15 10 26 0 10 4 19 8 19 6 0 26 38 36
70 1 3 12 29 25 58 23 51 24 52 67 52 24 0 44 -4 44 -10 0 -5 7 -7 15 -4 8 4
22 1 30 -6 8 -7 15 -9 15 -4 0 4 5 3 12 -4 7 -7 22 -12 34 -12 13 0 26 -5 29
-10 4 -6 12 -10 18 -9 13 2 61 -15 89 -31 10 -6 25 -10 33 -10 8 0 15 -4 15
-8 0 -4 8 -8 18 -9 23 -1 72 -20 159 -61 40 -18 75 -33 78 -33 3 1 28 -10 55
-24 27 -14 52 -26 55 -26 26 -4 45 -13 45 -22 0 -6 3 -8 6 -4 7 7 95 -31 303
-131 42 -20 79 -35 84 -34 4 1 7 -2 7 -6 0 -4 8 -8 18 -9 9 -1 43 -13 75 -27
31 -14 60 -27 65 -27 32 -8 42 -12 42 -20 0 -5 7 -6 15 -3 8 4 15 1 15 -6 0
-7 6 -10 14 -7 7 3 19 0 25 -6 6 -6 16 -12 23 -13 7 -2 31 -10 53 -18 22 -8
48 -15 58 -16 9 0 17 -5 17 -11 0 -7 10 -9 25 -7 14 3 25 1 25 -3 0 -5 9 -9
19 -9 11 0 23 -5 26 -11 4 -5 17 -9 28 -8 12 1 29 -1 37 -4 14 -5 55 -16 90
-23 113 -24 122 -26 225 -39 17 -2 53 -7 80 -10 93 -13 331 -7 445 11 19 3 45
6 57 8 12 1 25 5 29 9 4 4 17 7 29 7 12 0 25 3 29 7 3 4 12 8 19 9 59 9 247
90 247 106 0 6 3 8 6 5 4 -4 19 2 34 13 15 11 30 17 34 13 3 -3 6 -1 6 5 0 7
6 12 14 12 8 0 16 4 18 8 2 4 24 23 51 42 26 18 47 37 47 42 0 4 4 7 10 5 9
-2 170 162 170 175 0 4 6 13 13 20 18 20 57 76 57 83 0 4 6 13 13 20 29 34 37
45 31 45 -3 0 0 7 7 17 8 9 13 18 11 20 -1 2 5 17 14 34 8 17 13 33 10 36 -3
3 1 12 9 20 8 8 16 23 16 34 2 23 3 27 16 59 16 38 25 97 26 177 1 40 5 73 9
73 4 0 5 48 3 108 -8 210 -10 494 -3 498 4 3 0 23 -8 46 -8 23 -12 48 -10 55
3 7 1 13 -4 13 -6 0 -10 11 -10 25 0 14 -4 25 -10 25 -5 0 -9 3 -9 8 1 4 1 9
-1 12 -1 3 -3 15 -6 27 -4 25 -73 146 -86 151 -4 2 -8 10 -8 18 0 8 -5 14 -12
14 -6 0 -8 3 -5 7 4 3 -7 19 -23 35 -17 15 -30 31 -30 35 0 12 -84 83 -98 83
-9 0 -12 3 -8 7 7 8 -81 52 -106 52 -9 1 -19 5 -22 10 -3 5 -19 7 -36 5 -43
-5 -80 11 -80 36 0 11 10 42 22 68 13 26 23 55 24 65 1 9 3 18 4 20 4 3 11 48
11 70 0 9 3 17 7 17 9 0 5 236 -4 302 -4 26 -9 46 -13 44 -3 -2 -7 8 -8 22 0
15 -5 38 -11 52 -5 14 -10 29 -10 34 0 5 -4 12 -9 15 -4 3 -17 23 -27 44 -11
20 -23 37 -28 37 -5 0 -6 5 -3 10 3 6 1 10 -4 10 -6 0 -11 6 -11 13 0 34 -210
197 -253 197 -9 0 -19 5 -22 11 -4 6 -13 8 -21 5 -7 -3 -16 -1 -19 4 -4 6 -19
10 -36 10 -16 0 -29 4 -29 8 0 10 -122 7 -187 -4 -24 -4 -43 -11 -43 -16 0 -5
-4 -7 -9 -3 -5 3 -30 -6 -55 -19 -25 -13 -46 -23 -46 -20 0 7 -52 -39 -92 -81
-21 -21 -38 -45 -38 -52 0 -7 -4 -13 -8 -13 -5 0 -9 -6 -10 -12 -1 -7 -5 -29
-8 -49 -4 -28 -2 -38 10 -42 10 -4 16 -1 16 7 0 23 34 57 58 59 12 1 22 5 22
9 0 5 8 4 18 -1 9 -5 19 -8 22 -8 10 3 47 -28 57 -48 21 -41 13 -184 -14 -255
-3 -8 -8 -23 -9 -32 -2 -9 -12 -32 -23 -51 -11 -20 -17 -38 -14 -41 4 -3 2 -6
-4 -6 -10 0 -26 -36 -24 -52 1 -5 -6 -8 -15 -8 -8 0 -13 -4 -9 -9 3 -5 -6 -21
-20 -35 -14 -14 -23 -26 -19 -26 4 0 -5 -11 -20 -25 -15 -14 -24 -25 -19 -25
4 0 -25 -30 -64 -67 -72 -70 -122 -113 -129 -113 -2 0 -13 -8 -24 -17 -11 -10
-24 -18 -28 -19 -13 -1 -47 -17 -52 -24 -13 -18 -100 -58 -105 -49 -4 5 -11 6
-17 3 -7 -4 -8 -2 -4 5 4 6 12 9 17 6 5 -3 6 1 3 10 -4 9 3 24 17 38 13 12 35
36 49 52 14 17 29 31 33 32 12 3 40 33 31 33 -5 0 7 15 26 33 19 18 36 34 37
37 1 3 7 19 14 35 7 17 13 32 13 35 1 3 4 10 7 15 22 35 26 147 8 190 -7 17
-12 33 -11 38 1 4 -3 7 -8 7 -6 0 -10 5 -10 10 0 21 -57 73 -104 96 -99 48
-212 22 -325 -74 -31 -26 -58 -51 -60 -55 -7 -16 -46 -54 -68 -66 -24 -12 -23
-13 -26 32 -1 6 13 41 30 77 38 80 79 172 82 185 1 6 9 14 17 18 8 5 12 12 9
18 -4 5 -1 9 4 9 6 0 11 7 11 15 0 9 7 18 15 21 8 4 15 13 15 20 0 8 7 17 15
20 8 4 13 10 10 14 -3 5 3 13 12 19 10 6 14 11 9 11 -6 0 -1 9 11 19 11 10 28
29 39 42 33 41 171 159 177 152 4 -3 7 2 7 12 0 10 3 16 6 12 4 -3 12 -1 20 6
36 33 64 49 159 96 90 45 109 52 145 58 69 11 60 9 125 30 17 5 54 9 83 9 29
-1 52 1 52 5 0 6 57 14 148 21 12 1 22 6 22 10 0 4 7 8 15 8 23 0 145 51 145
61 0 5 7 9 15 9 9 0 27 11 40 25 14 13 25 22 25 19 0 -3 6 1 14 8 8 7 11 17 8
22 -3 5 0 6 6 2 12 -7 89 71 132 134 8 12 20 28 26 34 11 11 38 57 39 66 0 3
8 19 17 35 12 24 38 92 43 115 1 3 7 25 14 49 21 72 13 391 -9 391 -4 0 -11
20 -14 45 -4 25 -11 45 -17 45 -5 0 -8 3 -7 8 4 15 -63 137 -112 203 -41 55
-180 189 -196 189 -3 0 -24 12 -47 28 -23 15 -49 28 -57 30 -8 2 -17 7 -20 10
-7 10 -66 32 -117 45 -24 6 -43 14 -43 18 0 3 -19 7 -42 7 -24 1 -44 5 -46 11
-2 5 -10 7 -18 4 -8 -3 -22 -2 -31 2 -24 10 -283 12 -283 3 0 -5 -19 -8 -42
-8 -24 -1 -61 -7 -83 -15 -22 -8 -59 -17 -82 -21 -24 -3 -43 -10 -43 -13 0 -4
-6 -8 -12 -8 -7 0 -31 -8 -53 -18 -22 -11 -44 -19 -50 -20 -9 0 -128 -69 -150
-87 -5 -5 -37 -26 -70 -48 -33 -21 -74 -53 -92 -70 -18 -16 -35 -30 -38 -30
-12 0 -188 -175 -237 -235 -26 -33 -55 -67 -63 -76 -8 -9 -15 -20 -15 -26 0
-5 -11 -20 -25 -33 -14 -13 -23 -25 -20 -28 2 -3 -7 -13 -20 -24 -14 -11 -25
-26 -25 -34 0 -8 -4 -14 -8 -14 -5 0 -22 -27 -38 -60 -16 -33 -32 -60 -36 -60
-5 0 -8 -9 -8 -20 0 -11 -5 -20 -10 -20 -6 0 -9 -3 -8 -7 3 -13 -25 -63 -35
-63 -5 0 -7 -7 -3 -15 3 -8 1 -15 -4 -15 -6 0 -10 -7 -10 -15 0 -8 -5 -15 -11
-15 -5 0 -7 -4 -4 -10 3 -5 2 -10 -3 -10 -5 0 -17 -18 -28 -40 -10 -22 -23
-40 -27 -40 -5 0 -6 -4 -2 -9 3 -5 -1 -15 -8 -23 -7 -7 -19 -29 -26 -48 -8
-19 -20 -40 -27 -46 -7 -6 -14 -17 -16 -24 -2 -8 -9 -21 -16 -28 -7 -8 -10
-18 -7 -23 4 -5 1 -9 -4 -9 -6 0 -11 -7 -11 -15 0 -8 -5 -15 -10 -15 -6 0 -9
-3 -9 -7 3 -14 -34 -93 -43 -93 -4 0 -8 -6 -8 -14 0 -13 -29 -75 -40 -86 -8
-8 -39 -63 -52 -92 -7 -16 -16 -28 -20 -28 -4 0 -8 -7 -8 -15 0 -8 -5 -15 -11
-15 -5 0 -7 -4 -4 -10 3 -5 1 -10 -4 -10 -6 0 -11 -7 -11 -15 0 -8 -5 -15 -11
-15 -5 0 -8 -4 -5 -9 4 -5 -10 -38 -29 -73 -20 -34 -41 -74 -48 -88 -6 -14
-17 -31 -24 -38 -7 -7 -13 -17 -13 -22 0 -4 -14 -33 -32 -64 l-32 -55 -48 48
c-26 27 -48 53 -48 59 0 6 -4 12 -9 14 -21 7 -261 252 -331 338 -19 23 -45 53
-57 65 -12 13 -19 26 -15 30 4 3 -1 11 -11 16 -9 6 -17 17 -17 24 0 8 -3 15
-7 15 -7 0 -30 45 -65 130 -22 52 -22 233 -1 279 9 20 22 39 27 43 6 4 7 8 3
8 -5 0 11 20 36 43 51 50 64 54 142 41 46 -7 111 -8 140 -1 53 12 75 20 75 29
0 5 4 7 10 3 5 -3 22 8 38 25 16 16 32 27 35 23 4 -3 7 -1 7 6 0 6 9 22 20 33
11 12 30 44 42 70 12 26 25 48 30 48 5 0 8 6 7 13 -2 6 1 28 5 47 11 45 13
220 4 220 -5 0 -8 7 -8 15 0 17 -59 154 -75 172 -29 35 -34 41 -31 44 2 2 -25
32 -60 66 -35 34 -64 59 -64 56 0 -3 -9 5 -20 18 -10 13 -19 20 -20 16 0 -7
-9 -1 -43 29 -11 10 -144 77 -157 80 -3 0 -17 6 -31 12 -15 6 -40 12 -55 15
-16 2 -36 6 -44 10 -58 22 -288 28 -395 10z"/>
</g>
</svg>
