<?xml version="1.0" standalone="no"?>
<!DOCTYPE svg PUBLIC "-//W3C//DTD SVG 20010904//EN"
 "http://www.w3.org/TR/2001/REC-SVG-20010904/DTD/svg10.dtd">
<svg version="1.0" xmlns="http://www.w3.org/2000/svg"
 width="1024.000000pt" height="1024.000000pt" viewBox="0 0 1024.000000 1024.000000"
 preserveAspectRatio="xMidYMid meet">
<metadata>
Created by potrace 1.14, written by Peter Selinger 2001-2017
</metadata>
<g transform="translate(0.000000,1024.000000) scale(0.100000,-0.100000)"
fill="#000000" stroke="none">
<path d="M0 5120 l0 -5120 5120 0 5120 0 0 5120 0 5120 -5120 0 -5120 0 0
-5120z m3794 2635 c162 -35 310 -117 433 -241 203 -204 230 -509 63 -697 -80
-90 -209 -129 -305 -93 -45 18 -45 18 -89 -8 -174 -102 -195 -330 -52 -560 59
-95 158 -208 386 -439 102 -104 208 -220 235 -257 28 -38 53 -69 57 -69 3 -1
68 119 144 267 326 637 601 1141 724 1333 l88 137 -67 -51 c-74 -56 -193 -117
-229 -117 -59 0 288 387 464 516 276 205 570 294 867 264 240 -24 459 -125
592 -272 261 -287 308 -689 118 -1001 -47 -77 -161 -198 -234 -247 -192 -131
-464 -159 -644 -68 -100 51 -179 144 -215 254 -63 189 42 371 214 375 130 3
206 -136 101 -185 -38 -18 -63 -20 -99 -6 -34 13 -35 -11 -2 -45 47 -47 162
-42 239 10 42 29 92 98 112 156 17 48 20 157 5 211 -18 62 -71 131 -124 159
-137 75 -304 30 -457 -123 -148 -148 -269 -323 -444 -643 -94 -173 -666 -1317
-734 -1469 -7 -17 124 4 220 34 159 50 231 100 419 289 129 131 178 173 224
196 199 97 403 -27 383 -234 -9 -93 -40 -158 -119 -249 -88 -99 -152 -153
-259 -216 -44 -27 -78 -50 -76 -52 6 -7 110 32 201 75 306 143 523 381 597
655 35 129 19 231 -42 265 -37 20 -77 7 -121 -41 l-38 -41 0 37 c0 51 21 97
70 150 84 90 198 136 343 136 161 0 279 -46 394 -153 65 -61 135 -161 147
-211 6 -26 -2 -20 -60 42 -55 61 -82 80 -158 117 -114 55 -188 69 -317 62 -55
-3 -102 -7 -104 -9 -2 -2 10 -31 27 -65 63 -128 48 -313 -41 -498 -134 -279
-424 -532 -776 -678 -313 -129 -754 -211 -1048 -194 l-97 6 -56 -112 c-31 -62
-92 -190 -135 -285 l-78 -172 67 6 c37 4 87 11 112 16 25 5 162 11 305 15 369
8 484 -3 1055 -106 348 -62 489 -77 613 -62 243 29 386 107 477 260 22 37 40
70 40 73 0 3 -17 0 -37 -8 -77 -27 -154 -12 -214 43 -65 59 -86 171 -53 283
12 41 29 67 72 110 244 243 672 152 906 -193 l56 -82 -2 -205 c-3 -199 -3
-203 -17 -145 -33 146 -107 274 -225 390 -59 58 -173 135 -201 135 -4 0 9 -22
29 -49 162 -221 152 -550 -24 -807 -143 -207 -397 -371 -667 -430 -112 -24
-403 -24 -538 0 -222 41 -321 70 -780 231 -461 162 -701 220 -996 241 -95 6
-97 6 -104 -16 -21 -66 -271 -571 -310 -625 -157 -221 -443 -342 -715 -305
-224 30 -418 138 -575 317 -160 182 -251 400 -271 648 -9 118 19 370 52 464 3
9 13 -2 26 -30 53 -107 221 -233 396 -295 69 -25 91 -28 207 -28 114 0 138 3
190 23 106 43 195 159 195 255 0 71 -42 148 -89 161 -21 6 -23 5 -16 -11 43
-99 -25 -202 -139 -212 -115 -9 -206 81 -206 204 0 98 50 172 153 226 35 19
58 23 132 23 78 0 97 -4 141 -27 109 -57 183 -181 191 -321 5 -77 1 -107 -33
-225 -6 -20 -4 -22 17 -17 13 3 35 7 48 8 30 2 56 53 276 542 37 83 94 208
127 279 l59 128 -16 90 c-41 239 -159 436 -440 738 -356 382 -499 650 -521
975 -20 315 133 625 366 738 82 41 88 42 185 42 84 0 107 -4 141 -22 50 -27
99 -74 120 -116 25 -47 30 -138 10 -188 l-17 -41 43 31 c23 17 47 31 53 31 21
0 95 72 115 110 44 86 42 205 -5 305 -37 78 -157 199 -243 243 -127 67 -194
84 -348 89 -164 6 -245 -7 -378 -61 -115 -46 -215 -114 -306 -206 -81 -82
-177 -219 -216 -307 -59 -133 -103 -349 -104 -504 0 -162 46 -412 99 -534 32
-73 33 -79 15 -64 -22 18 -95 132 -132 206 -74 147 -115 332 -115 518 0 145
14 227 64 385 30 92 133 270 205 354 169 197 414 337 659 375 86 14 296 6 389
-14z"/>
<path d="M3470 3346 c-64 -18 -185 -56 -270 -84 -264 -87 -371 -112 -477 -112
-36 0 -53 -4 -53 -13 0 -29 93 -167 144 -214 75 -69 130 -87 250 -81 105 5
167 28 262 100 85 64 151 150 227 297 37 72 67 133 67 136 0 10 -39 3 -150
-29z"/>
</g>
</svg>
